<svg width="186" height="30" fill="none" xmlns="http://www.w3.org/2000/svg"><path d="M11.919 29.564c-2.393 0-4.486-.372-6.28-1.115-1.794-.77-3.19-1.858-4.187-3.262C.484 23.783 0 22.16 0 20.315v-.578c0-.193.057-.344.17-.454.115-.11.271-.166.47-.166h6.622c.2 0 .356.055.47.166.114.11.171.261.171.454v.248c0 .77.413 1.459 1.239 2.064.854.578 1.98.867 3.375.867 1.053 0 1.808-.206 2.264-.62.455-.44.683-.921.683-1.444 0-.606-.285-1.06-.854-1.363-.57-.303-1.61-.674-3.119-1.115l-1.239-.33c-2.819-.826-5.183-1.927-7.09-3.303C1.252 13.364.298 11.369.298 8.754c0-1.735.484-3.262 1.452-4.584.969-1.348 2.293-2.38 3.973-3.096C7.434.358 9.341 0 11.45 0c2.221 0 4.229.4 6.023 1.197 1.823.799 3.247 1.927 4.272 3.386 1.054 1.46 1.58 3.125 1.58 4.996v.372c0 .193-.056.344-.17.454-.114.11-.27.165-.47.165h-6.622c-.2 0-.356-.055-.47-.165-.114-.11-.17-.261-.17-.454V9.91c0-.826-.385-1.57-1.154-2.23-.769-.688-1.808-1.032-3.118-1.032-.912 0-1.638.179-2.179.537-.513.357-.769.853-.769 1.486 0 .495.185.922.555 1.28.4.33.997.66 1.795.99.797.304 2.022.703 3.673 1.198.228.083 1.225.386 2.99.909 1.795.495 3.29 1.417 4.486 2.766 1.196 1.322 1.794 2.932 1.794 4.831 0 1.845-.484 3.441-1.452 4.79-.968 1.321-2.321 2.34-4.058 3.055-1.738.716-3.76 1.074-6.066 1.074zm28.645-16.227c0 .193-.057.344-.17.454-.114.11-.271.165-.47.165h-3.546c-.143 0-.214.069-.214.207v6.482c0 1.377.513 2.065 1.538 2.065h1.58c.2 0 .357.055.47.165.114.11.171.261.171.454v5.285c0 .386-.213.606-.64.66a43.058 43.058 0 01-3.204.125c-2.592 0-4.5-.386-5.725-1.156-1.224-.771-1.85-2.23-1.88-4.377v-9.703c0-.138-.07-.207-.213-.207h-2.307c-.199 0-.356-.055-.47-.165-.113-.11-.17-.261-.17-.454V8.382c0-.193.057-.344.17-.454.114-.11.271-.165.47-.165h2.307c.143 0 .214-.07.214-.207V2.601c0-.192.057-.344.17-.454.115-.11.271-.165.47-.165h6.408c.2 0 .356.055.47.165.114.11.171.262.171.454v4.955c0 .138.071.207.214.207h3.545c.2 0 .356.055.47.165.114.11.171.261.171.454v4.955zm11.817-5.905c1.937 0 3.717.317 5.34.95 1.623.633 2.905 1.5 3.845 2.601.94 1.101 1.41 2.299 1.41 3.592v14.04c0 .192-.057.343-.171.453-.114.11-.27.166-.47.166h-6.75c-.2 0-.356-.056-.47-.166-.114-.11-.17-.261-.17-.454V27.17c0-.11-.029-.165-.086-.165-.028-.028-.071 0-.128.082a4.54 4.54 0 01-2.008 1.9c-.854.385-1.98.578-3.375.578-2.335 0-4.172-.51-5.51-1.528-1.339-1.046-2.008-2.56-2.008-4.542 0-2.092.755-3.702 2.264-4.83 1.538-1.13 3.76-1.694 6.664-1.694h3.973c.142 0 .213-.069.213-.206v-.743a1.7 1.7 0 00-.683-1.404c-.427-.358-1.011-.537-1.752-.537-.512 0-.968.083-1.367.248-.398.165-.683.385-.854.66a1.36 1.36 0 01-.342.413c-.085.055-.213.07-.384.042l-6.878-.826c-.398-.055-.598-.22-.598-.496.114-1.238.627-2.367 1.538-3.386.911-1.018 2.122-1.816 3.631-2.394 1.538-.606 3.247-.909 5.126-.909zm-.555 16.764c.911 0 1.652-.234 2.221-.702.599-.468.898-1.1.898-1.9v-.536c0-.137-.072-.206-.214-.206h-2.136c-1.794 0-2.691.564-2.691 1.692 0 .496.156.895.47 1.198.341.303.825.454 1.452.454zm24.608 5.368c-2.421 0-4.528-.564-6.323-1.693-1.794-1.156-3.104-2.753-3.93-4.79-.57-1.404-.854-2.973-.854-4.707 0-1.706.285-3.262.854-4.666.798-1.954 2.108-3.482 3.93-4.583 1.823-1.128 3.93-1.693 6.323-1.693 2.42 0 4.556.592 6.408 1.776 1.88 1.156 3.147 2.615 3.802 4.377.199.495.327 1.018.384 1.569v.123c0 .276-.185.455-.555.537l-6.622 1.032h-.128c-.37 0-.57-.178-.598-.536l-.17-.578c-.143-.468-.456-.854-.94-1.156-.456-.33-.997-.496-1.624-.496-1.14 0-1.95.495-2.435 1.486-.342.689-.513 1.638-.513 2.85 0 1.128.157 2.078.47 2.849.484 1.1 1.31 1.651 2.478 1.651 1.253 0 2.108-.633 2.563-1.9l.043-.164c.085-.468.327-.661.726-.578l6.664 1.073c.37.083.556.275.556.578 0 .33-.1.785-.3 1.363-.74 2.01-2.036 3.564-3.887 4.666-1.823 1.073-3.93 1.61-6.322 1.61zm13.449-.33c-.2 0-.356-.056-.47-.166-.114-.11-.17-.261-.17-.454V.95c0-.193.056-.344.17-.455.114-.11.27-.165.47-.165h6.75c.199 0 .355.055.47.165.113.11.17.262.17.455V12.8c0 .083.029.138.086.165.057.028.114 0 .17-.082l3.632-4.749c.171-.248.427-.371.769-.371h7.689c.171 0 .299.04.384.123.114.056.171.138.171.248a.72.72 0 01-.128.372l-5.511 7.184c-.057.083-.057.18 0 .29l6.28 12.51.086.33c0 .276-.186.414-.556.414h-7.048c-.371 0-.627-.166-.769-.496l-3.46-7.928c-.03-.055-.086-.082-.171-.082-.057-.028-.1-.014-.129.041l-1.41 2.312a.619.619 0 00-.085.248v5.285c0 .193-.057.344-.17.454-.115.11-.271.166-.47.166h-6.75zm35.529-21.76c.968 0 1.737.178 2.306.536.257.138.356.4.299.785l-1.025 6.359c-.028.22-.114.357-.256.412-.114.055-.285.055-.513 0a6.588 6.588 0 00-1.367-.165c-.427 0-.826.042-1.196.124-.74.138-1.381.44-1.922.909-.513.44-.769 1.046-.769 1.816v10.364c0 .193-.057.344-.171.454-.114.11-.271.166-.47.166h-6.75c-.199 0-.356-.056-.469-.166-.114-.11-.171-.261-.171-.454V8.382c0-.193.057-.344.171-.454.113-.11.27-.165.469-.165h6.75c.199 0 .356.055.47.165.114.11.171.261.171.454v.99c0 .083.028.139.085.166.057.028.1.014.128-.041 1.083-1.349 2.492-2.023 4.23-2.023zm28.925 21.76c-.2 0-.356-.056-.47-.166-.114-.11-.171-.261-.171-.454V.95c0-.193.057-.344.171-.455.114-.11.27-.165.47-.165h6.749c.2 0 .356.055.47.165.114.11.171.262.171.455v27.664c0 .193-.057.344-.171.454-.114.11-.27.166-.47.166h-6.749zm31.522-12.264c.086.606.128 1.225.128 1.858 0 .44-.014.785-.042 1.033 0 .385-.214.578-.641.578h-12.816c-.114 0-.171.055-.171.165 0 .248.114.537.342.867.285.468.783.867 1.495 1.197.741.303 1.567.455 2.478.455a6.67 6.67 0 002.136-.33 4.655 4.655 0 001.666-.95.697.697 0 01.427-.166c.199 0 .356.083.47.248l3.247 4.005c.114.138.17.29.17.454a.503.503 0 01-.213.413c-.997.936-2.236 1.638-3.717 2.106-1.481.44-3.075.66-4.784.66-2.649 0-4.913-.536-6.792-1.61-1.88-1.073-3.247-2.6-4.101-4.583-.627-1.431-.94-2.973-.94-4.624 0-1.734.256-3.276.769-4.625.769-2.092 2.036-3.73 3.802-4.913 1.765-1.184 3.844-1.776 6.237-1.776 1.822 0 3.503.413 5.04 1.239a10.54 10.54 0 013.845 3.427c1.025 1.431 1.68 3.056 1.965 4.872zm-10.893-2.89c-1.168 0-1.979.55-2.435 1.652l-.171.454c-.028.082-.014.151.043.206a.39.39 0 00.171.042h4.87c.113 0 .17-.056.17-.166 0-.11-.042-.289-.128-.536a1.941 1.941 0 00-.897-1.198c-.427-.303-.968-.454-1.623-.454z" fill="#fff"/></svg>