<svg width="23" height="24" fill="none" xmlns="http://www.w3.org/2000/svg"><path fill-rule="evenodd" clip-rule="evenodd" d="M11.438 15.392a3.337 3.337 0 10.001-6.675 3.337 3.337 0 000 6.675zm11.348-3.337c0 6.266-5.08 11.345-11.348 11.345C5.172 23.4.091 18.32.091 12.055.091 5.789 5.171.71 11.438.71c6.267 0 11.348 5.08 11.348 11.345z" fill="#101505"/><path fill-rule="evenodd" clip-rule="evenodd" d="M11.438 15.392a3.337 3.337 0 10.001-6.675 3.337 3.337 0 000 6.675zm11.348-3.337c0 6.266-5.08 11.345-11.348 11.345C5.172 23.4.091 18.32.091 12.055.091 5.789 5.171.71 11.438.71c6.267 0 11.348 5.08 11.348 11.345z" fill="url(#paint0_angular)"/><defs><radialGradient id="paint0_angular" cx="0" cy="0" r="1" gradientUnits="userSpaceOnUse" gradientTransform="matrix(0 -7.34088 7.34231 0 11.438 12.055)"><stop stop-color="#9BCE2E"/><stop offset="1" stop-color="#9BCE2E" stop-opacity=".4"/></radialGradient></defs></svg>