<svg width="23" height="24" viewBox="0 0 23 24" fill="none" xmlns="http://www.w3.org/2000/svg">
<path fill-rule="evenodd" clip-rule="evenodd" d="M11.4384 15.3918C13.2816 15.3918 14.7759 13.8979 14.7759 12.055C14.7759 10.2122 13.2816 8.71826 11.4384 8.71826C9.59524 8.71826 8.10103 10.2122 8.10103 12.055C8.10103 13.8979 9.59524 15.3918 11.4384 15.3918ZM22.7856 12.055C22.7856 18.3207 17.7053 23.4 11.4384 23.4C5.17155 23.4 0.0912344 18.3207 0.0912344 12.055C0.0912344 5.78935 5.17155 0.710024 11.4384 0.710024C17.7053 0.710024 22.7856 5.78935 22.7856 12.055Z" fill="#101505"/>
<path fill-rule="evenodd" clip-rule="evenodd" d="M11.4384 15.3918C13.2816 15.3918 14.7759 13.8979 14.7759 12.055C14.7759 10.2122 13.2816 8.71826 11.4384 8.71826C9.59524 8.71826 8.10103 10.2122 8.10103 12.055C8.10103 13.8979 9.59524 15.3918 11.4384 15.3918ZM22.7856 12.055C22.7856 18.3207 17.7053 23.4 11.4384 23.4C5.17155 23.4 0.0912344 18.3207 0.0912344 12.055C0.0912344 5.78935 5.17155 0.710024 11.4384 0.710024C17.7053 0.710024 22.7856 5.78935 22.7856 12.055Z" fill="url(#paint0_angular)"/>
<defs>
<radialGradient id="paint0_angular" cx="0" cy="0" r="1" gradientUnits="userSpaceOnUse" gradientTransform="translate(11.4384 12.055) rotate(-90) scale(7.34088 7.34231)">
<stop stop-color="#9BCE2E"/>
<stop offset="1" stop-color="#9BCE2E" stop-opacity="0.4"/>
</radialGradient>
</defs>
</svg>
