<svg width="186" height="30" viewBox="0 0 186 30" fill="none" xmlns="http://www.w3.org/2000/svg">
<path d="M11.9186 29.5639C9.52631 29.5639 7.43309 29.1923 5.63889 28.4491C3.8447 27.6783 2.44922 26.591 1.45244 25.1871C0.484147 23.7833 0 22.1592 0 20.3149V19.7368C0 19.5441 0.0569585 19.3927 0.170876 19.2826C0.284793 19.1725 0.441428 19.1174 0.640783 19.1174H7.26221C7.46157 19.1174 7.6182 19.1725 7.73212 19.2826C7.84603 19.3927 7.90299 19.5441 7.90299 19.7368V19.9845C7.90299 20.7553 8.31594 21.4435 9.14184 22.0491C9.99622 22.6271 11.1211 22.9162 12.5166 22.9162C13.5704 22.9162 14.3251 22.7097 14.7807 22.2968C15.2364 21.8564 15.4642 21.3746 15.4642 20.8516C15.4642 20.246 15.1794 19.7918 14.6099 19.4891C14.0403 19.1863 13.0008 18.8146 11.4914 18.3742L10.2525 18.0439C7.43309 17.2181 5.06931 16.117 3.1612 14.7407C1.25309 13.3643 0.299032 11.3686 0.299032 8.75356C0.299032 7.01936 0.78318 5.49162 1.75147 4.17032C2.71977 2.82151 4.04405 1.78925 5.72433 1.07355C7.43309 0.357849 9.3412 0 11.4487 0C13.67 0 15.6778 0.39914 17.472 1.19742C19.2947 1.9957 20.7187 3.1243 21.7439 4.58323C22.7976 6.04216 23.3245 7.70753 23.3245 9.57936V9.95098C23.3245 10.1437 23.2676 10.2951 23.1536 10.4052C23.0397 10.5153 22.8831 10.5703 22.6837 10.5703H16.0623C15.8629 10.5703 15.7063 10.5153 15.5924 10.4052C15.4785 10.2951 15.4215 10.1437 15.4215 9.95098V9.90969C15.4215 9.08388 15.037 8.34065 14.2681 7.68001C13.4992 6.99183 12.4597 6.64775 11.1496 6.64775C10.2383 6.64775 9.51207 6.82667 8.97097 7.18452C8.45834 7.54237 8.20203 8.03786 8.20203 8.67098C8.20203 9.16646 8.38714 9.59313 8.75737 9.95098C9.15608 10.2813 9.75415 10.6116 10.5516 10.9419C11.349 11.2447 12.5736 11.6439 14.2254 12.1394C14.4532 12.2219 15.45 12.5247 17.2157 13.0478C19.0099 13.5432 20.5051 14.4654 21.7012 15.8142C22.8973 17.1355 23.4954 18.7458 23.4954 20.6452C23.4954 22.4895 23.0112 24.086 22.0429 25.4349C21.0747 26.7562 19.7219 27.7747 17.9846 28.4904C16.2474 29.2061 14.2254 29.5639 11.9186 29.5639Z" fill="white"/>
<path d="M40.5643 13.3368C40.5643 13.5295 40.5073 13.6809 40.3934 13.791C40.2795 13.9011 40.1228 13.9561 39.9235 13.9561H36.3778C36.2354 13.9561 36.1642 14.025 36.1642 14.1626V20.6452C36.1642 22.0215 36.6768 22.7097 37.7021 22.7097H39.2827C39.482 22.7097 39.6387 22.7648 39.7526 22.8749C39.8665 22.985 39.9235 23.1364 39.9235 23.3291V28.6142C39.9235 28.9996 39.7099 29.2198 39.2827 29.2749C38.172 29.3574 37.104 29.3987 36.0788 29.3987C33.4872 29.3987 31.579 29.0134 30.3544 28.2426C29.1298 27.4719 28.5033 26.0129 28.4748 23.8658V14.1626C28.4748 14.025 28.4036 13.9561 28.2612 13.9561H25.9544C25.755 13.9561 25.5984 13.9011 25.4845 13.791C25.3706 13.6809 25.3136 13.5295 25.3136 13.3368V8.38194C25.3136 8.18925 25.3706 8.03786 25.4845 7.92775C25.5984 7.81764 25.755 7.76259 25.9544 7.76259H28.2612C28.4036 7.76259 28.4748 7.69377 28.4748 7.55614V2.60129C28.4748 2.4086 28.5318 2.25721 28.6457 2.1471C28.7596 2.03699 28.9162 1.98194 29.1156 1.98194H35.5234C35.7228 1.98194 35.8794 2.03699 35.9933 2.1471C36.1072 2.25721 36.1642 2.4086 36.1642 2.60129V7.55614C36.1642 7.69377 36.2354 7.76259 36.3778 7.76259H39.9235C40.1228 7.76259 40.2795 7.81764 40.3934 7.92775C40.5073 8.03786 40.5643 8.18925 40.5643 8.38194V13.3368Z" fill="white"/>
<path d="M52.3814 7.43227C54.318 7.43227 56.0979 7.74882 57.7212 8.38194C59.3445 9.01506 60.6261 9.88216 61.5659 10.9832C62.5057 12.0843 62.9756 13.2817 62.9756 14.5755V28.6142C62.9756 28.8069 62.9187 28.9583 62.8048 29.0684C62.6909 29.1785 62.5342 29.2336 62.3349 29.2336H55.5853C55.3859 29.2336 55.2293 29.1785 55.1154 29.0684C55.0015 28.9583 54.9445 28.8069 54.9445 28.6142V27.1691C54.9445 27.059 54.916 27.0039 54.8591 27.0039C54.8306 26.9764 54.7879 27.0039 54.7309 27.0865C54.2468 27.9398 53.5775 28.5729 52.7231 28.9858C51.8687 29.3712 50.7438 29.5639 49.3483 29.5639C47.013 29.5639 45.1761 29.0547 43.8376 28.0362C42.4991 26.9901 41.8298 25.4762 41.8298 23.4942C41.8298 21.4022 42.5845 19.7918 44.0939 18.6632C45.6318 17.5346 47.8532 16.9703 50.758 16.9703H54.7309C54.8733 16.9703 54.9445 16.9015 54.9445 16.7639V16.0207C54.9445 15.4426 54.7167 14.9746 54.261 14.6168C53.8338 14.2589 53.25 14.08 52.5095 14.08C51.9969 14.08 51.5412 14.1626 51.1425 14.3278C50.7438 14.4929 50.459 14.7131 50.2881 14.9884C50.1742 15.1811 50.0603 15.3187 49.9464 15.4013C49.861 15.4564 49.7328 15.4701 49.5619 15.4426L42.6842 14.6168C42.2855 14.5617 42.0861 14.3966 42.0861 14.1213C42.2 12.8826 42.7127 11.754 43.624 10.7355C44.5353 9.717 45.7457 8.91872 47.2551 8.34065C48.793 7.73506 50.5017 7.43227 52.3814 7.43227ZM51.826 24.1962C52.7374 24.1962 53.4778 23.9622 54.0474 23.4942C54.6455 23.0263 54.9445 22.3931 54.9445 21.5949V21.0581C54.9445 20.9205 54.8733 20.8516 54.7309 20.8516H52.595C50.8008 20.8516 49.9037 21.4159 49.9037 22.5445C49.9037 23.04 50.0603 23.4392 50.3736 23.742C50.7153 24.0448 51.1995 24.1962 51.826 24.1962Z" fill="white"/>
<path d="M76.4338 29.5639C74.013 29.5639 71.9056 28.9996 70.1114 27.871C68.3172 26.7149 67.0071 25.1183 66.1812 23.0813C65.6116 21.6774 65.3269 20.1084 65.3269 18.3742C65.3269 16.6675 65.6116 15.1123 66.1812 13.7084C66.9786 11.754 68.2887 10.2262 70.1114 9.12517C71.934 7.99657 74.0415 7.43227 76.4338 7.43227C78.8545 7.43227 80.9904 8.02409 82.8416 9.20775C84.7212 10.3639 85.9885 11.8228 86.6436 13.5845C86.8429 14.08 86.9711 14.603 87.028 15.1536V15.2774C87.028 15.5527 86.8429 15.7316 86.4727 15.8142L79.8513 16.8465H79.7231C79.3529 16.8465 79.1535 16.6675 79.1251 16.3097L78.9542 15.7316C78.8118 15.2637 78.4985 14.8783 78.0144 14.5755C77.5587 14.2452 77.0176 14.08 76.391 14.08C75.2519 14.08 74.4402 14.5755 73.9561 15.5665C73.6143 16.2546 73.4434 17.2043 73.4434 18.4155C73.4434 19.5441 73.6001 20.4938 73.9134 21.2645C74.3975 22.3656 75.2234 22.9162 76.391 22.9162C77.6441 22.9162 78.4985 22.283 78.9542 21.0168L78.9969 20.8516C79.0823 20.3837 79.3244 20.191 79.7231 20.2736L86.3873 21.3471C86.7575 21.4297 86.9426 21.6224 86.9426 21.9252C86.9426 22.2555 86.8429 22.7097 86.6436 23.2878C85.9031 25.2972 84.6073 26.8525 82.7562 27.9536C80.9335 29.0271 78.826 29.5639 76.4338 29.5639Z" fill="white"/>
<path d="M89.8829 29.2336C89.6835 29.2336 89.5269 29.1785 89.413 29.0684C89.299 28.9583 89.2421 28.8069 89.2421 28.6142V0.949676C89.2421 0.756988 89.299 0.605591 89.413 0.495483C89.5269 0.385375 89.6835 0.330321 89.8829 0.330321H96.6325C96.8318 0.330321 96.9884 0.385375 97.1024 0.495483C97.2163 0.605591 97.2732 0.756988 97.2732 0.949676V12.8C97.2732 12.8826 97.3017 12.9376 97.3587 12.9652C97.4156 12.9927 97.4726 12.9652 97.5295 12.8826L101.161 8.1342C101.332 7.88646 101.588 7.76259 101.93 7.76259H109.619C109.79 7.76259 109.918 7.80388 110.003 7.88646C110.117 7.94151 110.174 8.02409 110.174 8.1342C110.174 8.24431 110.132 8.36818 110.046 8.50581L104.535 15.6903C104.478 15.7729 104.478 15.8693 104.535 15.9794L110.815 28.4904L110.901 28.8207C110.901 29.0959 110.715 29.2336 110.345 29.2336H103.297C102.926 29.2336 102.67 29.0684 102.528 28.7381L99.0674 20.8103C99.0389 20.7553 98.982 20.7278 98.8966 20.7278C98.8396 20.7002 98.7969 20.714 98.7684 20.7691L97.3587 23.0813C97.3017 23.1914 97.2732 23.274 97.2732 23.3291V28.6142C97.2732 28.8069 97.2163 28.9583 97.1024 29.0684C96.9884 29.1785 96.8318 29.2336 96.6325 29.2336H89.8829Z" fill="white"/>
<path d="M125.412 7.47356C126.38 7.47356 127.149 7.65248 127.718 8.01033C127.975 8.14797 128.074 8.40947 128.017 8.79485L126.992 15.1536C126.964 15.3738 126.878 15.5114 126.736 15.5665C126.622 15.6215 126.451 15.6215 126.223 15.5665C125.711 15.4564 125.255 15.4013 124.856 15.4013C124.429 15.4013 124.03 15.4426 123.66 15.5252C122.92 15.6628 122.279 15.9656 121.738 16.4336C121.225 16.874 120.969 17.4796 120.969 18.2503V28.6142C120.969 28.8069 120.912 28.9583 120.798 29.0684C120.684 29.1785 120.527 29.2336 120.328 29.2336H113.578C113.379 29.2336 113.222 29.1785 113.109 29.0684C112.995 28.9583 112.938 28.8069 112.938 28.6142V8.38194C112.938 8.18925 112.995 8.03786 113.109 7.92775C113.222 7.81764 113.379 7.76259 113.578 7.76259H120.328C120.527 7.76259 120.684 7.81764 120.798 7.92775C120.912 8.03786 120.969 8.18925 120.969 8.38194V9.37291C120.969 9.45549 120.997 9.51055 121.054 9.53807C121.111 9.5656 121.154 9.55184 121.182 9.49678C122.265 8.14796 123.674 7.47356 125.412 7.47356Z" fill="white"/>
<path d="M154.337 29.2336C154.137 29.2336 153.981 29.1785 153.867 29.0684C153.753 28.9583 153.696 28.8069 153.696 28.6142V0.949676C153.696 0.756988 153.753 0.605591 153.867 0.495483C153.981 0.385375 154.137 0.330321 154.337 0.330321H161.086C161.286 0.330321 161.442 0.385375 161.556 0.495483C161.67 0.605591 161.727 0.756988 161.727 0.949676V28.6142C161.727 28.8069 161.67 28.9583 161.556 29.0684C161.442 29.1785 161.286 29.2336 161.086 29.2336H154.337Z" fill="white"/>
<path d="M185.859 16.9703C185.945 17.5759 185.987 18.1953 185.987 18.8284C185.987 19.2688 185.973 19.6129 185.945 19.8607C185.945 20.246 185.731 20.4387 185.304 20.4387H172.488C172.374 20.4387 172.317 20.4938 172.317 20.6039C172.317 20.8516 172.431 21.1407 172.659 21.471C172.944 21.9389 173.442 22.3381 174.154 22.6684C174.895 22.9712 175.721 23.1226 176.632 23.1226C177.401 23.1226 178.113 23.0125 178.768 22.7923C179.423 22.5721 179.978 22.2555 180.434 21.8426C180.576 21.7325 180.719 21.6774 180.861 21.6774C181.06 21.6774 181.217 21.76 181.331 21.9252L184.578 25.9303C184.692 26.068 184.748 26.2194 184.748 26.3845C184.748 26.5497 184.677 26.6873 184.535 26.7974C183.538 27.7334 182.299 28.4353 180.818 28.9033C179.337 29.3437 177.743 29.5639 176.034 29.5639C173.385 29.5639 171.121 29.0271 169.242 27.9536C167.362 26.88 165.995 25.3523 165.141 23.3703C164.514 21.9389 164.201 20.3974 164.201 18.7458C164.201 17.0116 164.457 15.4701 164.97 14.1213C165.739 12.0293 167.006 10.3914 168.772 9.20775C170.537 8.02409 172.616 7.43227 175.009 7.43227C176.831 7.43227 178.512 7.84517 180.049 8.67098C181.616 9.49678 182.897 10.6391 183.894 12.0981C184.919 13.5295 185.574 15.1536 185.859 16.9703ZM174.966 14.08C173.798 14.08 172.987 14.6306 172.531 15.7316L172.36 16.1858C172.332 16.2684 172.346 16.3372 172.403 16.3923C172.46 16.4198 172.517 16.4336 172.574 16.4336H177.444C177.557 16.4336 177.614 16.3785 177.614 16.2684C177.614 16.1583 177.572 15.9794 177.486 15.7316C177.344 15.2086 177.045 14.8095 176.589 14.5342C176.162 14.2314 175.621 14.08 174.966 14.08Z" fill="white"/>
</svg>
